<svg width="18" height="18" fill="none" xmlns="http://www.w3.org/2000/svg"><path fill-rule="evenodd" clip-rule="evenodd" d="M16.2 0H1.8C.8 0 0 .8 0 1.8v14.4c0 1 .8 1.8 1.8 1.8h14.4c1 0 1.8-.8 1.8-1.8V1.8c0-1-.8-1.8-1.8-1.8Zm-2.38 5.62a5.3 5.3 0 0 0 1.48-.4c-.35.5-.79.94-1.3 1.3l.02.32c0 3.3-2.6 7.11-7.36 7.11a7.5 7.5 0 0 1-3.96-1.12 5.38 5.38 0 0 0 3.83-1.04 2.58 2.58 0 0 1-2.42-1.73A2.72 2.72 0 0 0 5.28 10a2.52 2.52 0 0 1-2.07-2.45v-.03c.34.19.74.3 1.17.31a2.48 2.48 0 0 1-.8-3.33A7.42 7.42 0 0 0 8.9 7.1a2.54 2.54 0 0 1 2.52-3.07c.74.01 1.4.31 1.88.8a5.3 5.3 0 0 0 1.64-.6c-.2.58-.6 1.07-1.13 1.38Z" fill="#252725"/></svg>