<svg width="18" height="18" fill="none" xmlns="http://www.w3.org/2000/svg"><path fill-rule="evenodd" clip-rule="evenodd" d="M9 0a9 9 0 0 0-3.28 17.38c-.08-.71-.15-1.8.03-2.58l1.06-4.48S6.54 9.8 6.54 9c0-1.25.72-2.19 1.63-2.19.76 0 1.13.58 1.13 1.27 0 .77-.49 1.93-.74 3-.21.9.45 1.62 1.33 1.62 1.6 0 2.83-1.68 2.83-4.12 0-2.15-1.55-3.66-3.76-3.66a3.9 3.9 0 0 0-4.06 3.9c0 .78.3 1.6.67 2.06.07.09.08.17.06.26l-.25 1.02c-.04.16-.13.2-.3.12-1.13-.52-1.83-2.17-1.83-3.49 0-2.84 2.06-5.44 5.95-5.44 3.12 0 5.55 2.22 5.55 5.2 0 3.1-1.96 5.6-4.67 5.6-.92 0-1.77-.48-2.07-1.04l-.56 2.14c-.2.78-.75 1.76-1.12 2.36A9 9 0 1 0 9 0Z" fill="#252725"/></svg>